<svg width="1242" height="328" viewBox="0 0 1242 328" fill="none" xmlns="http://www.w3.org/2000/svg">
<g clip-path="url(#clip0_55_113)">
<g clip-path="url(#clip1_55_113)">
<g filter="url(#filter0_d_55_113)">
<path d="M-0.356445 20.3955C-0.356445 9.34983 8.59786 0.395508 19.6436 0.395508H1222.15C1233.2 0.395508 1242.15 9.34981 1242.15 20.3955V309.824C1242.15 320.869 1233.2 329.824 1222.15 329.824H19.6436C8.59786 329.824 -0.356445 320.869 -0.356445 309.824V20.3955Z" fill="#002D7C"/>
<path d="M19.6436 0.895508H1222.15C1232.92 0.895508 1241.65 9.62596 1241.65 20.3955V309.824C1241.65 320.593 1232.92 329.324 1222.15 329.324H19.6436C8.874 329.324 0.143555 320.593 0.143555 309.824V20.3955C0.143555 9.62597 8.874 0.895508 19.6436 0.895508Z" stroke="#EFF0F7"/>
</g>
</g>
<path opacity="0.1" d="M1242 -196C1194.72 -196 1147.91 -186.688 1104.23 -168.597C1060.56 -150.505 1020.87 -123.988 987.442 -90.5584C954.012 -57.1293 927.495 -17.4432 909.403 26.234C891.312 69.9112 882 116.724 882 164C882 211.276 891.312 258.089 909.403 301.766C927.495 345.443 954.013 385.129 987.442 418.559C1020.87 451.988 1060.56 478.505 1104.23 496.597C1147.91 514.688 1194.72 524 1242 524L1242 164L1242 -196Z" fill="white"/>
<path opacity="0.1" d="M1242 -256C1186.84 -256 1132.23 -245.136 1081.27 -224.029C1030.32 -202.922 984.016 -171.985 945.015 -132.985C906.015 -93.9842 875.078 -47.6837 853.971 3.27302C832.864 54.2298 822 108.845 822 164C822 219.155 832.864 273.77 853.971 324.727C875.078 375.684 906.015 421.984 945.015 460.985C984.016 499.986 1030.32 530.923 1081.27 552.029C1132.23 573.136 1186.84 584 1242 584L1242 164L1242 -256Z" fill="white"/>
<path opacity="0.1" d="M1242 -316C1178.97 -316 1116.55 -303.584 1058.31 -279.462C1000.08 -255.34 947.161 -219.983 902.589 -175.411C858.017 -130.839 822.66 -77.9243 798.538 -19.688C774.416 38.5483 762 100.966 762 164C762 227.035 774.416 289.452 798.538 347.688C822.66 405.924 858.017 458.839 902.589 503.411C947.161 547.983 1000.08 583.34 1058.31 607.462C1116.55 631.584 1178.97 644 1242 644L1242 164L1242 -316Z" fill="white"/>
<path opacity="0.1" d="M1242 -16C1218.36 -16 1194.96 -11.3442 1173.12 -2.29832C1151.28 6.74753 1131.44 20.0062 1114.72 36.7208C1098.01 53.4353 1084.75 73.2784 1075.7 95.117C1066.66 116.956 1062 140.362 1062 164C1062 187.638 1066.66 211.044 1075.7 232.883C1084.75 254.722 1098.01 274.565 1114.72 291.279C1131.44 307.994 1151.28 321.253 1173.12 330.298C1194.96 339.344 1218.36 344 1242 344L1242 164L1242 -16Z" fill="white"/>
<path opacity="0.1" d="M1242 -76C1210.48 -76 1179.27 -69.7922 1150.16 -57.7311C1121.04 -45.67 1094.58 -27.9917 1072.29 -5.70561C1050.01 16.5805 1032.33 43.0379 1020.27 72.156C1008.21 101.274 1002 132.483 1002 164C1002 195.517 1008.21 226.726 1020.27 255.844C1032.33 284.962 1050.01 311.42 1072.29 333.706C1094.58 355.992 1121.04 373.67 1150.16 385.731C1179.27 397.792 1210.48 404 1242 404L1242 164L1242 -76Z" fill="white"/>
<path opacity="0.1" d="M1242 -136C1202.6 -136 1163.59 -128.24 1127.19 -113.164C1090.8 -98.0875 1057.73 -75.9896 1029.87 -48.132C1002.01 -20.2744 979.913 12.7973 964.836 49.195C949.76 85.5927 942 124.604 942 164C942 203.397 949.76 242.407 964.836 278.805C979.913 315.203 1002.01 348.275 1029.87 376.132C1057.73 403.99 1090.8 426.088 1127.2 441.164C1163.59 456.24 1202.6 464 1242 464L1242 164L1242 -136Z" fill="white"/>
<path opacity="0.1" d="M1242 44C1226.24 44 1210.64 47.1039 1196.08 53.1345C1181.52 59.165 1168.29 68.0042 1157.15 79.1472C1146 90.2902 1137.17 103.519 1131.13 118.078C1125.1 132.637 1122 148.241 1122 164C1122 179.759 1125.1 195.363 1131.13 209.922C1137.17 224.481 1146 237.71 1157.15 248.853C1168.29 259.996 1181.52 268.835 1196.08 274.866C1210.64 280.896 1226.24 284 1242 284L1242 164L1242 44Z" fill="white"/>
<path opacity="0.1" d="M1242 104C1234.12 104 1226.32 105.552 1219.04 108.567C1211.76 111.583 1205.15 116.002 1199.57 121.574C1194 127.145 1189.58 133.759 1186.57 141.039C1183.55 148.319 1182 156.121 1182 164C1182 171.879 1183.55 179.681 1186.57 186.961C1189.58 194.241 1194 200.855 1199.57 206.426C1205.15 211.998 1211.76 216.417 1219.04 219.433C1226.32 222.448 1234.12 224 1242 224L1242 164L1242 104Z" fill="white"/>
</g>
<defs>
<filter id="filter0_d_55_113" x="-14.3564" y="-8.60449" width="1270.51" height="357.428" filterUnits="userSpaceOnUse" color-interpolation-filters="sRGB">
<feFlood flood-opacity="0" result="BackgroundImageFix"/>
<feColorMatrix in="SourceAlpha" type="matrix" values="0 0 0 0 0 0 0 0 0 0 0 0 0 0 0 0 0 0 127 0" result="hardAlpha"/>
<feOffset dy="5"/>
<feGaussianBlur stdDeviation="7"/>
<feColorMatrix type="matrix" values="0 0 0 0 0.0323264 0 0 0 0 0.0598209 0 0 0 0 0.204167 0 0 0 0.04 0"/>
<feBlend mode="normal" in2="BackgroundImageFix" result="effect1_dropShadow_55_113"/>
<feBlend mode="normal" in="SourceGraphic" in2="effect1_dropShadow_55_113" result="shape"/>
</filter>
<clipPath id="clip0_55_113">
<rect width="1242" height="328" fill="white"/>
</clipPath>
<clipPath id="clip1_55_113">
<rect width="1242" height="328" fill="white"/>
</clipPath>
</defs>
</svg>
